<svg width="14" height="14" viewBox="0 0 14 14" fill="none" xmlns="http://www.w3.org/2000/svg">
<path d="M7.00661 0.947937C9.39358 0.947937 11.611 2.8594 11.611 5.27085C11.611 6.8648 11.0725 7.99172 10.17 9.30558C9.27217 10.6127 8.15283 11.8516 7.51286 12.5259C7.23149 12.8224 6.76823 12.8224 6.48685 12.5259C5.84689 11.8516 4.72755 10.6127 3.82972 9.30558C2.92725 7.99172 2.38875 6.8648 2.38875 5.27085C2.38875 2.8594 4.60609 0.947937 6.99305 0.947937" stroke="#E06A00" stroke-width="1.5" stroke-linecap="round"/>
<path d="M8.72902 5.52553C8.72902 6.48991 7.95737 7.28746 7.00258 7.28746C6.04779 7.28746 5.27069 6.48991 5.27069 5.52553C5.27069 4.56114 6.04779 3.82982 7.00258 3.82982C7.95737 3.82982 8.72902 4.56114 8.72902 5.52553Z" stroke="#E06A00" stroke-width="1.5"/>
</svg>
