<svg width="14" height="14" viewBox="0 0 14 14" fill="none" xmlns="http://www.w3.org/2000/svg">
<g clip-path="url(#clip0_57_354)">
<path d="M7 14C3.14008 14 0 10.8599 0 7C0 3.14008 3.14008 0 7 0C10.8599 0 14 3.14008 14 7C14 10.8599 10.8599 14 7 14ZM7 1.75C4.1055 1.75 1.75 4.10492 1.75 7C1.75 9.89508 4.1055 12.25 7 12.25C9.8945 12.25 12.25 9.89508 12.25 7C12.25 4.10492 9.89508 1.75 7 1.75ZM9.91667 7.29167C9.91667 6.80867 9.52467 6.41667 9.04167 6.41667H7.58333V3.79167C7.58333 3.30867 7.19192 2.91667 6.70833 2.91667C6.22475 2.91667 5.83333 3.30867 5.83333 3.79167V7.29167C5.83333 7.77467 6.22475 8.16667 6.70833 8.16667H9.04167C9.52467 8.16667 9.91667 7.77467 9.91667 7.29167Z" fill="#06A77D"/>
</g>
<defs>
<clipPath id="clip0_57_354">
<rect width="14" height="14" fill="white"/>
</clipPath>
</defs>
</svg>
